<?xml version="1.0" encoding="utf-8"?>
<svg version="1.1" id="Layer_1" xmlns="http://www.w3.org/2000/svg" xmlns:xlink="http://www.w3.org/1999/xlink" x="0px" y="0px" viewBox="0 0 513 524" style="enable-background:new 0 0 513 524;" xml:space="preserve">
  <path fill="#8CAAFF" d="M21.8,340c71.9,4.8-19.9-111.1-21-143.8c-4.3-16.6,5.4-29,22.7-28c14.1-0.8,31.1,4.5,34.4,20
	c16,46.3-88.7,188.1-1.1,187.8c79.9,0.1-4-119.3-16.7-154.4c-9.3-23.4-30.5-58.4-13.7-81.9c12.4-12,32.5-10.4,48.2-7.3
	c24.3,4.6,30,31.3,25.7,52.4C93.9,223,77,258.3,63.6,294.2c-11.1,33.4-46.7,106.2,4.3,120.9c56.8,10.8,76.1-18.1,56.7-70.2
	c-14-55.1-106-180.8-77.5-227.4c16.1-20,53.4-17.4,74.6-7.4c46.4,27.9,0.7,115.6-12.9,154.1C93.5,309.3,20,439.1,100.2,453
	c128.6,17.8,48.1-121.5,20.1-179.7c-17.5-40.8-89-152.9-40.2-185.6c30.6-15.9,89.9-12.6,98.4,28.1c11.3,68-56.2,177.4-76.9,246.1
	c-9.7,32.3-26,73.4-3.3,103.5c18.7,19.5,49.7,18.7,74.4,14.5c41-7.1,41.6-48.5,31.7-80.9c-16.2-55.5-45.5-106-70.4-158
	C99,169.7,31.4,35.9,174.1,58C332.9,95.4-4,465.3,156.1,500.1c91.6,13,107-36.8,77.8-113.8c-23.4-63.3-57.4-122-85.7-183.1
	C129.6,158.7,77,60.9,142.1,34.3c30.7-9.3,71.7-9.9,96.9,12.6c51,54.4-40.8,209.5-62.8,271.5c-21.1,55.8-83.2,180.1,12.7,195.5
	c76.8,9.6,110.3-23.3,87.3-99.4c-22.4-73.9-62.6-140.7-95-210.4C154.6,146.2,88.5,16.5,197.4,8.8c114.1-9.2,100.8,78.8,71.2,157
	c-26.5,72.4-63,140.8-88.1,213.7c-12.6,41.1-34.4,103.8,10.7,132c21.2,11.4,46.6,11.8,70.1,9.4c38.8-3.4,59.6-30.1,54.5-68.6
	c-22.1-128.7-115.2-233.6-146.4-360c-16-66.4,16.2-96.2,82-92.1c85.1,3,76.9,76.4,56.6,137.4c-24.1,73.4-60.5,141.8-88.1,213.8
	c-22.1,56.5-57.4,162.3,35.4,169.3c49.6,4.9,97.9-7.9,91.3-67.9c-7-57.6-35.7-109.7-60.2-161.5C259.2,225.7,118.3,12,257.3,1.2
	c174.3-15.2,57,190.1,24.3,271.9c-21.9,55.1-71.7,148.1-48.9,205.8c17.2,36.1,68.6,36.3,102.5,29.2c88.7-23.6,6.4-162.7-16-214.1
	C286.8,224.7,244,157.4,231,81c-5.1-29.9,6.9-61.6,39.1-68.5c47.4-11.4,110.5-2,107.4,59.5c-8.5,96.8-65.9,180.8-96.4,271.4
	c-20.5,55.6-43.7,142.6,43.2,146c112.1,8.1,76.5-89.5,46.8-155.2c-23.2-63.4-141.5-239-92.2-293.6c23.1-22.4,68.4-21.6,96.6-9.9
	c72.8,36.5-23.1,197.3-41.7,252.7c-14.4,35.5-29.6,71.6-34.4,109.9c-4.6,29.3,6.3,60.7,38.3,66.9c29.6,6.2,76.3,6.6,85.9-29.3
	C445.3,340.1,254,123,318.2,57.5c20.1-16.1,49.2-15.3,73.2-10.4c57,15.1,32,86.5,18.1,125.8c-13.2,36.2-29.2,71.3-43.7,107
	C352,315.5,336,352,335.9,390.7c-0.7,41.2,37.6,52.4,72.2,48.4c44.6-3,46.2-41.1,34.8-75.8c-16.3-68.1-120-210.2-95.4-268.1
	c13.8-28.1,70.4-27.8,91.2-8.7c41.1,41.6-41.6,178.7-54.2,231.6c-8.3,28.9-22.7,73.8,10.5,91.8c17.3,7.8,38.3,8.3,56.3,2.7
	c26.3-9.1,21-41.7,13.9-62.6c-15.2-45.8-40.5-87.3-60.2-131.2c-19.6-41.7-46.3-111.7,27.9-106.3c53,1.1,39.8,57.1,27.7,91.1
	c-10,40-71.4,146-33.5,176.3c16.2,10.5,46.4,13,60.3-2.2c28.6-45.8-89.3-171.7-57.1-215.2c14-13.3,48.3-13.7,57.7,5.1
	c13.6,45.3-33.1,105.5-31,153.8c-0.4,15.7,13.3,26.6,28.3,26.3c9.1,0.5,21-0.2,25.3-9.6c16.3-34.2-88.8-146.4-21.3-148.7
	c-64.1,0.4,28.8,109.1,22.9,141.7c-1,26.3-51.2,20.4-54.3-2.5c-14.2-42.2,75.6-167.1,6.2-174.7c-119.2-5.4,71.9,187.2,18.1,229
	c-16.5,8.8-39.7,7.5-55.4-2.7c-26.2-23.4-5.7-67.5,2.8-95.5c10.9-38.1,64.3-132.2,30.1-163c-17.5-12.7-51.1-12.7-67.5,1.9
	c-33.6,36.5,48.7,155.8,63.3,199.3c14,30.9,34,90.2-18.2,93.6c-50.9,5-72.2-21.4-60.9-70.4c7.5-61.3,105.3-215.1,61.7-258.8
	c-18.2-15.9-46.4-14.9-68.5-9.1c-32.5,9.4-27.8,48.5-19.3,73.9C365,198,389,240.2,409.9,283.5c15.6,36.3,68.8,125.4,19.2,151.3
	c-19.9,8.4-43.6,7.7-64.1,1.4c-42.9-14.8-30.5-68.8-20.1-102.1c17.4-55.2,43.9-106.9,63.6-161.3c9.3-27,19.3-55.2,17-84.1
	c-0.8-25.8-24.3-42.2-48.7-42.8c-22.6-1.5-51.5-0.4-65,20.7c-33.6,57,83,225.4,102.5,293.6c12.4,32.7,25.5,87.8-19.5,100.3
	c-23.1,5.9-49.3,5.7-71.2-4.3c-56.5-30.7-7.5-128.7,8.9-173.3c21.9-53.4,48-105.4,62.8-161.4c12.4-45.1,9-93.3-48.2-96.7
	c-50.5-4.9-89,14.3-77.9,70.9c18.3,85.1,68.9,158.7,102.9,238c30.3,66.6,65.3,165.2-48.1,157.1c-73.5-2.9-70.8-65.9-53.4-120.4
	c17.7-79.2,142.3-275.9,93.9-338.8c-22.8-28.8-93.2-28.7-118.9-4.2c-67.3,73.9,137.1,322.9,131.1,429.1
	c0.6,48.2-44.5,59.5-84.5,56.3c-80.6-3.4-73.8-74.5-54.5-132.6c17.7-55.1,43-107.3,65.7-160.5c19.6-50.6,66.3-141.3,35.8-192
	C318.1-6.1,233.6-6.7,209.6,23.4c-31.2,43.3,9.2,119.8,27.3,163.4c32,70,71.4,136.9,97.7,209.5c17.9,48.6,29.5,116.8-39.7,125.2
	c-271.6,24.8,90.8-382.7,13.7-495.4C290.5,2.4,257.2,0.5,229.7,1.9c-28.6,0.8-59.3,15.7-61.9,47.3
	c-24.4,114.4,293.7,482.2,68.3,474.3c-218.2-10,127.1-395.5,35.8-495c-20.4-19.3-51.5-20-78-17.9c-50,3.9-63.2,40.8-52.4,85.2
	c18.3,75.1,59.4,142,92,211.4c32,67.3,108.5,215.3-26.8,209.6c-118.1,0.2-58.3-135.2-31.8-198.9c24-65.2,100-193.6,71.5-258.5
	C228.6,23.6,159.6,22.5,130,42.2c-78.4,63.3,132.3,314.9,118.3,414.4c-2.1,39.5-45.1,49.5-77.9,46.5c-30.6-0.4-58.9-18.4-59.4-51.4
	c-10.7-94.9,157.2-317.4,88.7-380.9c-23-17.2-56-16.8-82.7-9.6c-53.4,20-20.9,89.6-6.4,126.9c22.9,53.1,51.5,103.5,74.8,156.4
	c11.3,26.5,22.7,53.8,25.2,82.8c6.6,55.6-54,63.9-95,50.8c-36.8-12.9-31.9-58.5-23.4-88.8c19.9-73.3,61.3-143,81.2-216.3
	c10.7-37.1,11.7-85.3-36.8-91.3c-109-14.8-69.9,79-41,139.5c20.5,50.8,96.8,164.6,70.9,214.5c-10.6,17.4-33.4,19.9-52,19.6
	c-24.7,0.7-50.6-12.6-51.6-39.9c-2.1-34,11.8-66.5,23.3-97.8c17.3-44.9,38.8-88.4,50.6-135.2c11.9-43.9,1.8-80.5-50.3-78.7
	c-56.1-1.5-49.1,45.3-33.4,83.6c12.3,46.4,116.5,193,64.3,224.1c-23.6,11.3-66.3,11-74.7-19.3c-10.5-65.2,56.9-152.6,58.5-221.5
	c1.6-20.3-13.2-37.9-33.7-39c-25.9-3.9-52.6,4-46.4,35.8C24.7,216.3,116.6,332.9,84,368c-14.6,11.3-39.6,11.6-54.3,0.4
	C2.1,340.2,53,254.1,57.3,216.9c2.4-13.6,4.5-30.5-6.6-40.9c-12.8-10.3-44.2-13.2-50,5.9C-11.5,218.9,99.3,342.6,21.8,340" />
</svg>